<?xml version="1.0" encoding="utf-8"?>
<svg xmlns="http://www.w3.org/2000/svg" height="256" width="256" viewBox="0 0 256 256">
  <g>
    <rect height="256" width="256" fill="#512BD4" />
    <path id="path1" transform="rotate(0,128,128) translate(59,86.2183420062065) scale(4.3125,4.3125)  " fill="#FFFFFF" d="M22.215027,2.1240215L22.31604,2.2660198C22.869995,3.0860266 23.194031,4.074002 23.194031,5.1379964 23.194031,7.9760072 20.892029,10.277001 18.054993,10.277001 16.282043,10.277001 14.718018,9.3780148 13.795044,8.0110113L13.749023,7.9410035 13.52301,8.2970211C13.127014,8.9390194,12.778992,9.6030199,12.491028,10.277001L12.407043,10.481011 12.557007,10.530022C18.216003,12.329001,24.395996,13.141012,26.957031,7.8059938L26.999023,7.7159979 26.97699,7.6880133C26.629028,7.2220099 26.423035,6.6450145 26.423035,6.0190079 26.423035,5.6339986 26.501038,5.2670247 26.642029,4.9330103L26.64502,4.9260218 26.609009,4.8650171C25.434021,2.9360025,23.881042,2.1310103,22.218994,2.1240215z M18.054993,0C19.38501,-1.9700019E-07,20.597046,0.50601139,21.51001,1.335021L21.546021,1.3700242 21.674011,1.3480215C23.875,1.0040274,25.976013,1.6320177,27.536987,3.7010164L27.579041,3.7580232 27.652039,3.7060213C28.097046,3.4050266 28.634033,3.2290015 29.210999,3.2290015 30.751038,3.2290015 32,4.4790003 32,6.0190079 32,7.5600226 30.751038,8.8080074 29.210999,8.8080074 28.778015,8.8080074 28.368042,8.7090084 28.002014,8.5330135L27.981995,8.5219967 27.901001,8.6630184C24.838989,13.823995,18.471008,13.253012,12.540039,11.549003L12.067993,11.408012 11.998047,11.632011C11.794006,12.312002,11.65802,12.991018,11.601013,13.657003L11.583008,13.937001 11.674011,13.968007C12.742004,14.358998 13.504028,15.383991 13.504028,16.588001 13.504028,18.129015 12.255005,19.377001 10.715027,19.377001 9.1760254,19.377001 7.9260254,18.129015 7.9260254,16.588001 7.9260254,15.24001 8.8829956,14.116018 10.153015,13.856008L10.177002,13.851003 10.194031,13.701009C10.29303,12.878012,10.507019,12.04,10.817017,11.207999L10.882019,11.041007 10.734009,10.99401C9.5440063,10.606011,8.3880005,10.191002,7.2999878,9.7880175L7.2120361,9.7549975 7.1390381,9.8579943C6.4169922,10.825004 5.2630005,11.451011 3.9639893,11.451011 1.7750244,11.451011 0,9.6750109 0,7.4860174 0,5.2990071 1.7750244,3.5230076 3.9639893,3.5230074 6.1530151,3.5230076 7.9260254,5.2990071 7.9260254,7.4860174 7.9260254,7.8969972 7.8640137,8.2929928 7.7480469,8.6650021L7.7090454,8.7800228 7.8250122,8.8250057C8.8010254,9.2029965,9.8430176,9.5999987,10.919006,9.9789965L11.285034,10.105004 11.350037,9.9670031C11.81604,9.0089962,12.400024,8.072016,13.070007,7.1899969L13.25,6.9590098 13.229004,6.9050242C13.027039,6.3539993 12.916992,5.7589986 12.916992,5.1379964 12.916992,2.302 15.218018,-1.9700019E-07 18.054993,0z" />
  </g>
</svg>

